<svg width="78" height="60" viewBox="0 0 78 60" fill="none" xmlns="http://www.w3.org/2000/svg">
<path d="M9 41.25H7.75V42.5H9V41.25ZM49 7.5C48.6685 7.5 48.3505 7.6317 48.1161 7.86612C47.8817 8.10054 47.75 8.41848 47.75 8.75C47.75 9.08152 47.8817 9.39946 48.1161 9.63388C48.3505 9.8683 48.6685 10 49 10V7.5ZM74 46.25V47.5H75.25V46.25H74ZM67.75 46.25V45H66.5V46.25H67.75ZM74 35C74.3315 35 74.6495 34.8683 74.8839 34.6339C75.1183 34.3995 75.25 34.0815 75.25 33.75C75.25 33.4185 75.1183 33.1005 74.8839 32.8661C74.6495 32.6317 74.3315 32.5 74 32.5V35ZM74 42.5C74.3315 42.5 74.6495 42.3683 74.8839 42.1339C75.1183 41.8995 75.25 41.5815 75.25 41.25C75.25 40.9185 75.1183 40.6005 74.8839 40.3661C74.6495 40.1317 74.3315 40 74 40V42.5ZM1.5 8.75C1.16848 8.75 0.850537 8.8817 0.616116 9.11612C0.381696 9.35054 0.25 9.66848 0.25 10C0.25 10.3315 0.381696 10.6495 0.616116 10.8839C0.850537 11.1183 1.16848 11.25 1.5 11.25V8.75ZM16.5 11.25C16.8315 11.25 17.1495 11.1183 17.3839 10.8839C17.6183 10.6495 17.75 10.3315 17.75 10C17.75 9.66848 17.6183 9.35054 17.3839 9.11612C17.1495 8.8817 16.8315 8.75 16.5 8.75V11.25ZM24 8.75C23.6685 8.75 23.3505 8.8817 23.1161 9.11612C22.8817 9.35054 22.75 9.66848 22.75 10C22.75 10.3315 22.8817 10.6495 23.1161 10.8839C23.3505 11.1183 23.6685 11.25 24 11.25V8.75ZM29 11.25C29.3315 11.25 29.6495 11.1183 29.8839 10.8839C30.1183 10.6495 30.25 10.3315 30.25 10C30.25 9.66848 30.1183 9.35054 29.8839 9.11612C29.6495 8.8817 29.3315 8.75 29 8.75V11.25ZM15.25 13.75C14.9185 13.75 14.6005 13.8817 14.3661 14.1161C14.1317 14.3505 14 14.6685 14 15C14 15.3315 14.1317 15.6495 14.3661 15.8839C14.6005 16.1183 14.9185 16.25 15.25 16.25V13.75ZM42.75 16.25C43.0815 16.25 43.3995 16.1183 43.6339 15.8839C43.8683 15.6495 44 15.3315 44 15C44 14.6685 43.8683 14.3505 43.6339 14.1161C43.3995 13.8817 43.0815 13.75 42.75 13.75V16.25ZM6.5 21.25C6.16848 21.25 5.85054 21.3817 5.61612 21.6161C5.3817 21.8505 5.25 22.1685 5.25 22.5C5.25 22.8315 5.3817 23.1495 5.61612 23.3839C5.85054 23.6183 6.16848 23.75 6.5 23.75V21.25ZM34 23.75C34.3315 23.75 34.6495 23.6183 34.8839 23.3839C35.1183 23.1495 35.25 22.8315 35.25 22.5C35.25 22.1685 35.1183 21.8505 34.8839 21.6161C34.6495 21.3817 34.3315 21.25 34 21.25V23.75ZM14 2.5H44V0H14V2.5ZM47.75 6.25V41.25H50.25V6.25H47.75ZM49 40H9V42.5H49V40ZM10.25 41.25V6.25H7.75V41.25H10.25ZM44 2.5C44.9946 2.5 45.9484 2.89509 46.6516 3.59835C47.3549 4.30161 47.75 5.25544 47.75 6.25H50.25C50.25 5.42924 50.0883 4.61651 49.7742 3.85823C49.4602 3.09994 48.9998 2.41095 48.4194 1.83058C47.8391 1.25022 47.1501 0.789844 46.3918 0.475752C45.6335 0.16166 44.8208 0 44 0V2.5ZM14 0C12.3424 0 10.7527 0.65848 9.58058 1.83058C8.40848 3.00269 7.75 4.5924 7.75 6.25H10.25C10.25 5.25544 10.6451 4.30161 11.3483 3.59835C12.0516 2.89509 13.0054 2.5 14 2.5V0ZM49 10H65.3075V7.5H49V10ZM68.8913 12.6475L72.3638 23.93L74.7525 23.195L71.2812 11.9125L68.8913 12.6475ZM72.75 26.5037V46.25H75.25V26.5037H72.75ZM60.465 40H49V42.5H60.465V40ZM74 45H67.535V47.5H74V45ZM66.6512 44.6338L63.1162 41.0988L61.3488 42.8662L64.8838 46.4012L66.6512 44.6338ZM60.465 42.5C60.6293 42.4999 60.7909 42.5322 60.9427 42.595C61.0946 42.6578 61.2326 42.75 61.3488 42.8662L63.1162 41.0988C62.4132 40.3954 61.4595 40.0002 60.465 40V42.5ZM72.3638 23.93C72.6201 24.7639 72.7503 25.6314 72.75 26.5037H75.25C75.25 25.3825 75.0825 24.2663 74.7525 23.195L72.3638 23.93ZM67.535 45C67.2035 44.9999 66.8856 44.8682 66.6512 44.6338L64.8838 46.4012C65.5868 47.1046 66.5405 47.4998 67.535 47.5V45ZM65.3075 10C66.1094 10.0001 66.8902 10.2573 67.5352 10.7338C68.1802 11.2103 68.6555 11.881 68.8913 12.6475L71.2812 11.9125C70.8882 10.6347 70.0958 9.51657 69.0203 8.72237C67.9449 7.92817 66.6432 7.49974 65.3062 7.5V10H65.3075ZM62.75 52.5C62.75 53.8261 62.2232 55.0979 61.2855 56.0355C60.3479 56.9732 59.0761 57.5 57.75 57.5V60C59.7391 60 61.6468 59.2098 63.0533 57.8033C64.4598 56.3968 65.25 54.4891 65.25 52.5H62.75ZM57.75 57.5C56.4239 57.5 55.1521 56.9732 54.2145 56.0355C53.2768 55.0979 52.75 53.8261 52.75 52.5H50.25C50.25 54.4891 51.0402 56.3968 52.4467 57.8033C53.8532 59.2098 55.7609 60 57.75 60V57.5ZM52.75 52.5C52.75 51.1739 53.2768 49.9021 54.2145 48.9645C55.1521 48.0268 56.4239 47.5 57.75 47.5V45C55.7609 45 53.8532 45.7902 52.4467 47.1967C51.0402 48.6032 50.25 50.5109 50.25 52.5H52.75ZM57.75 47.5C59.0761 47.5 60.3479 48.0268 61.2855 48.9645C62.2232 49.9021 62.75 51.1739 62.75 52.5H65.25C65.25 50.5109 64.4598 48.6032 63.0533 47.1967C61.6468 45.7902 59.7391 45 57.75 45V47.5ZM29 52.5C29 53.8261 28.4732 55.0979 27.5355 56.0355C26.5979 56.9732 25.3261 57.5 24 57.5V60C25.9891 60 27.8968 59.2098 29.3033 57.8033C30.7098 56.3968 31.5 54.4891 31.5 52.5H29ZM24 57.5C22.6739 57.5 21.4021 56.9732 20.4645 56.0355C19.5268 55.0979 19 53.8261 19 52.5H16.5C16.5 54.4891 17.2902 56.3968 18.6967 57.8033C20.1032 59.2098 22.0109 60 24 60V57.5ZM19 52.5C19 51.1739 19.5268 49.9021 20.4645 48.9645C21.4021 48.0268 22.6739 47.5 24 47.5V45C22.0109 45 20.1032 45.7902 18.6967 47.1967C17.2902 48.6032 16.5 50.5109 16.5 52.5H19ZM24 47.5C25.3261 47.5 26.5979 48.0268 27.5355 48.9645C28.4732 49.9021 29 51.1739 29 52.5H31.5C31.5 50.5109 30.7098 48.6032 29.3033 47.1967C27.8968 45.7902 25.9891 45 24 45V47.5ZM30.25 53.75H51.5V51.25H30.25V53.75ZM15.035 53.75H17.75V51.25H15.035V53.75ZM14.1513 50.8838L9.88375 46.6162L8.11625 48.3838L12.3837 52.6512L14.1513 50.8838ZM15.035 51.25C14.7035 51.2499 14.3856 51.1182 14.1513 50.8838L12.3837 52.6512C13.0868 53.3546 14.0405 53.7498 15.035 53.75V51.25ZM64 53.75H69V51.25H64V53.75ZM67.75 47.5H75.25V45H67.75V47.5ZM75.25 47.5V51.25H77.75V47.5H75.25ZM75.25 51.25H69V53.75H75.25V51.25ZM66.5 46.25V51.25H69V46.25H66.5ZM69 51.25H66.5C66.5 51.913 66.7634 52.5489 67.2322 53.0178C67.7011 53.4866 68.337 53.75 69 53.75V51.25ZM75.25 51.25V53.75C75.913 53.75 76.5489 53.4866 77.0178 53.0178C77.4866 52.5489 77.75 51.913 77.75 51.25H75.25ZM75.25 47.5H77.75C77.75 46.837 77.4866 46.2011 77.0178 45.7322C76.5489 45.2634 75.913 45 75.25 45V47.5ZM70.25 35H74V32.5H70.25V35ZM74 40H70.25V42.5H74V40ZM67.75 35V40H70.25V35H67.75ZM70.25 40H67.75C67.75 40.663 68.0134 41.2989 68.4822 41.7678C68.9511 42.2366 69.587 42.5 70.25 42.5V40ZM70.25 32.5C69.587 32.5 68.9511 32.7634 68.4822 33.2322C68.0134 33.7011 67.75 34.337 67.75 35H70.25V32.5ZM5.25 42.5H11.5V40H5.25V42.5ZM11.5 42.5V46.25H14V42.5H11.5ZM11.5 46.25H5.25V48.75H11.5V46.25ZM2.75 42.5V46.25H5.25V42.5H2.75ZM5.25 46.25H2.75C2.75 46.913 3.01339 47.5489 3.48223 48.0178C3.95107 48.4866 4.58696 48.75 5.25 48.75V46.25ZM11.5 46.25V48.75C12.163 48.75 12.7989 48.4866 13.2678 48.0178C13.7366 47.5489 14 46.913 14 46.25H11.5ZM11.5 42.5H14C14 41.837 13.7366 41.2011 13.2678 40.7322C12.7989 40.2634 12.163 40 11.5 40V42.5ZM5.25 40C4.58696 40 3.95107 40.2634 3.48223 40.7322C3.01339 41.2011 2.75 41.837 2.75 42.5H5.25V40ZM57.75 52.5V55C58.413 55 59.0489 54.7366 59.5178 54.2678C59.9866 53.7989 60.25 53.163 60.25 52.5H57.75ZM57.75 52.5H55.25C55.25 53.163 55.5134 53.7989 55.9822 54.2678C56.4511 54.7366 57.087 55 57.75 55V52.5ZM57.75 52.5V50C57.087 50 56.4511 50.2634 55.9822 50.7322C55.5134 51.2011 55.25 51.837 55.25 52.5H57.75ZM57.75 52.5H60.25C60.25 51.837 59.9866 51.2011 59.5178 50.7322C59.0489 50.2634 58.413 50 57.75 50V52.5ZM24 52.5V55C24.663 55 25.2989 54.7366 25.7678 54.2678C26.2366 53.7989 26.5 53.163 26.5 52.5H24ZM24 52.5H21.5C21.5 53.163 21.7634 53.7989 22.2322 54.2678C22.7011 54.7366 23.337 55 24 55V52.5ZM24 52.5V50C23.337 50 22.7011 50.2634 22.2322 50.7322C21.7634 51.2011 21.5 51.837 21.5 52.5H24ZM24 52.5H26.5C26.5 51.837 26.2366 51.2011 25.7678 50.7322C25.2989 50.2634 24.663 50 24 50V52.5ZM55.25 20.7025V15H52.75V20.7025H55.25ZM64.6438 12.5H55.25V15H64.6438V12.5ZM64.6438 15L67.7688 25L70.155 24.2537L67.03 14.2537L64.6438 15ZM59.905 25L55.25 20.7025L53.5538 22.54L58.21 26.8375L59.905 25ZM59.9062 27.5H67.7688V25H59.905L59.9062 27.5ZM58.21 26.8375C58.6717 27.2634 59.2781 27.5 59.9062 27.5L59.905 25L58.21 26.8375ZM67.7688 25V27.5C68.161 27.5 68.5477 27.4078 68.8977 27.2307C69.2476 27.0536 69.551 26.7967 69.7833 26.4807C70.0156 26.1647 70.1703 25.7984 70.2349 25.4116C70.2994 25.0247 70.2721 24.6281 70.155 24.2537L67.7688 25ZM64.6438 15L67.03 14.2537C66.8711 13.7449 66.5538 13.3014 66.1243 12.9857C65.6948 12.6699 65.1768 12.4998 64.6438 12.5V15ZM55.25 15V12.5C54.587 12.5 53.9511 12.7634 53.4822 13.2322C53.0134 13.7011 52.75 14.337 52.75 15H55.25ZM52.75 20.7025C52.7499 21.0477 52.8212 21.3891 52.9595 21.7054C53.0979 22.0216 53.3002 22.3058 53.5538 22.54L55.25 20.7025H52.75ZM1.5 11.25H16.5V8.75H1.5V11.25ZM24 11.25H29V8.75H24V11.25ZM15.25 16.25H42.75V13.75H15.25V16.25ZM6.5 23.75H34V21.25H6.5V23.75Z" fill="#111827"/>
</svg>
