<svg width="10" height="6" viewBox="0 0 10 6" fill="none" xmlns="http://www.w3.org/2000/svg">
<g clip-path="url(#clip0_4_2210)">
<path fill-rule="evenodd" clip-rule="evenodd" d="M9.35399 0.645994C9.30754 0.59943 9.25237 0.562487 9.19162 0.537281C9.13088 0.512075 9.06576 0.4991 8.99999 0.4991C8.93422 0.4991 8.8691 0.512075 8.80836 0.537281C8.74761 0.562487 8.69244 0.59943 8.64599 0.645994L4.99999 4.29299L1.35399 0.645994C1.2601 0.552107 1.13277 0.499362 0.999991 0.499362C0.867215 0.499362 0.739877 0.552107 0.645991 0.645994C0.552104 0.73988 0.499359 0.867218 0.499359 0.999994C0.499359 1.13277 0.552104 1.26011 0.645991 1.35399L4.64599 5.35399C4.69244 5.40056 4.74761 5.4375 4.80836 5.46271C4.8691 5.48791 4.93422 5.50089 4.99999 5.50089C5.06576 5.50089 5.13088 5.48791 5.19162 5.46271C5.25237 5.4375 5.30755 5.40056 5.35399 5.35399L9.35399 1.35399C9.40055 1.30755 9.4375 1.25237 9.4627 1.19163C9.48791 1.13088 9.50088 1.06576 9.50088 0.999994C9.50088 0.934226 9.48791 0.869105 9.4627 0.80836C9.4375 0.747615 9.40055 0.692439 9.35399 0.645994Z" fill="#111111" fill-opacity="0.75"/>
</g>
<defs>
<clipPath id="clip0_4_2210">
<rect width="10" height="6" fill="white"/>
</clipPath>
</defs>
</svg>
