<svg width="71" height="71" viewBox="0 0 71 71" fill="none" xmlns="http://www.w3.org/2000/svg">
<path d="M25.3225 1.84L26.5 1.4225L26.1412 0.408752L25.085 0.612503L25.3225 1.84ZM44.09 2.08L44.3575 0.858753L43.3075 0.627502L42.9225 1.63125L44.09 2.08ZM62.4237 24.6125L62.2687 25.8538L62.4237 24.6138V24.6125ZM54.75 55.9975C54.4184 55.9975 54.1005 56.1292 53.8661 56.3636C53.6317 56.598 53.5 56.916 53.5 57.2475C53.5 57.579 53.6317 57.897 53.8661 58.1314C54.1005 58.3658 54.4184 58.4975 54.75 58.4975V55.9975ZM59.75 57.2475H61C61 56.916 60.8683 56.598 60.6339 56.3636C60.3994 56.1292 60.0815 55.9975 59.75 55.9975V57.2475ZM52.25 50.9975C52.5815 50.9975 52.8994 50.8658 53.1339 50.6314C53.3683 50.397 53.5 50.079 53.5 49.7475C53.5 49.416 53.3683 49.098 53.1339 48.8636C52.8994 48.6292 52.5815 48.4975 52.25 48.4975V50.9975ZM47.25 49.7475H46C46 50.079 46.1317 50.397 46.3661 50.6314C46.6005 50.8658 46.9184 50.9975 47.25 50.9975V49.7475ZM59.6625 52.4538C59.7175 52.7808 59.9002 53.0726 60.1704 53.2649C60.4405 53.4573 60.7761 53.5344 61.1031 53.4794C61.4301 53.4243 61.7219 53.2416 61.9143 52.9715C62.1066 52.7013 62.1838 52.3658 62.1287 52.0388L59.6625 52.4538ZM47.3375 54.5388C47.2824 54.2117 47.0997 53.9199 46.8296 53.7276C46.5594 53.5352 46.2239 53.4581 45.8968 53.5131C45.5698 53.5682 45.278 53.7509 45.0857 54.021C44.8933 54.2912 44.8162 54.6267 44.8712 54.9538L47.3375 54.5388ZM58.5 62.2475C58.5 62.579 58.6317 62.897 58.8661 63.1314C59.1005 63.3658 59.4184 63.4975 59.75 63.4975C60.0815 63.4975 60.3994 63.3658 60.6339 63.1314C60.8683 62.897 61 62.579 61 62.2475H58.5ZM48.5 44.7475C48.5 44.416 48.3683 44.098 48.1339 43.8636C47.8994 43.6292 47.5815 43.4975 47.25 43.4975C46.9184 43.4975 46.6005 43.6292 46.3661 43.8636C46.1317 44.098 46 44.416 46 44.7475H48.5ZM16.595 5.7875C19.4806 4.57267 22.4846 3.66111 25.5587 3.0675L25.085 0.612503C21.8407 1.23917 18.6703 2.20143 15.625 3.48375L16.595 5.7875ZM2.49497 11.725L16.595 5.7875L15.625 3.48375L1.52497 9.42125L2.49497 11.725ZM5.66997 23.3725L2.49497 11.725L0.08247 12.3825L3.25872 24.0288L5.66997 23.3725ZM13.1475 22.4388L5.66997 23.3725L5.98122 25.8525L13.4575 24.9188L13.1475 22.4388ZM14.8975 60.8938L15.9562 24.9938L13.4575 24.9188L12.3987 60.8188L14.8987 60.8938H14.8975ZM34.75 64.7475C28.3218 64.7532 21.9246 63.8578 15.745 62.0875L15.055 64.49C21.4589 66.3248 28.0884 67.253 34.75 67.2475V64.7475ZM62.58 23.3725L55.1025 22.4388L54.7925 24.9188L62.2687 25.8538L62.58 23.3725ZM65.755 11.725L62.58 23.3725L64.9912 24.03L68.1675 12.3825L65.755 11.725ZM51.655 5.7875L65.755 11.725L66.7262 9.42125L52.6262 3.48375L51.655 5.7875ZM43.8212 3.3C46.4962 3.8875 49.1187 4.72 51.655 5.7875L52.6262 3.48375C49.9559 2.35934 47.1873 1.48071 44.3575 0.858753L43.8212 3.3ZM34.75 2.2475C31.7506 2.24952 28.7612 1.9043 25.8412 1.21875L25.2687 3.6525C28.315 4.36875 31.4887 4.7475 34.75 4.7475V2.2475ZM34.75 7.2475C33.0368 7.24776 31.3612 6.74524 29.9309 5.80223C28.5006 4.85922 27.3785 3.51719 26.7037 1.9425L24.4062 2.92875C25.2739 4.95281 26.7165 6.67777 28.5552 7.88984C30.3938 9.10191 32.5477 9.74781 34.75 9.7475V7.2475ZM26.7037 1.9425C26.6303 1.77139 26.5623 1.59797 26.5 1.4225L24.1437 2.2575C24.225 2.485 24.3125 2.7075 24.4062 2.92875L26.7037 1.9425ZM43.6587 1.21875C40.7388 1.90428 37.7493 2.24949 34.75 2.2475V4.7475C38.0112 4.7475 41.185 4.36875 44.2312 3.6525L43.6587 1.21875ZM42.9225 1.63125C42.8828 1.73622 42.8399 1.8404 42.7962 1.94375L45.0937 2.92875C45.15 2.79625 45.205 2.6625 45.2562 2.5275L42.9225 1.63125ZM42.7962 1.94375C42.121 3.51797 40.9988 4.85948 39.5685 5.80202C38.1383 6.74457 36.4629 7.24672 34.75 7.24625V9.74625C39.3925 9.74625 43.375 6.935 45.0937 2.9275L42.7962 1.94125V1.94375ZM68.1675 12.3825C68.3271 11.7979 68.269 11.1752 68.0038 10.6303C67.7387 10.0853 67.2847 9.65524 66.7262 9.42L65.755 11.725L68.1675 12.3825ZM62.2687 25.8538C62.8661 25.9285 63.4703 25.7852 63.9704 25.4501C64.4706 25.1151 64.833 24.6108 64.9912 24.03L62.58 23.3725L62.2687 25.8538ZM54.7925 24.9188L55.1025 22.4388C54.7446 22.3941 54.3814 22.4273 54.0376 22.5362C53.6938 22.6451 53.3777 22.8271 53.1108 23.0697C52.844 23.3123 52.6329 23.6098 52.4918 23.9417C52.3508 24.2736 52.2832 24.632 52.2937 24.9925L54.7925 24.9188ZM12.3987 60.8188C12.35 62.4863 13.4125 64.0188 15.055 64.49L15.745 62.0875C15.4911 62.011 15.27 61.8522 15.1165 61.636C14.963 61.4198 14.8859 61.1586 14.8975 60.8938L12.3987 60.8188ZM13.4575 24.9188L15.9562 24.9938C15.967 24.6331 15.9008 24.2743 15.7597 23.9422C15.6187 23.61 15.4074 23.3124 15.1404 23.0696C14.8734 22.8269 14.5571 22.6448 14.2131 22.5359C13.869 22.427 13.5055 22.3938 13.1475 22.4388L13.4575 24.9188ZM3.25872 24.0312C3.41715 24.6119 3.77971 25.1158 4.27983 25.4506C4.77995 25.7854 5.38405 25.9273 5.98122 25.8525L5.66997 23.3725L3.25872 24.0312ZM1.52372 9.42C0.965235 9.65524 0.512459 10.0853 0.247347 10.6303C-0.0177647 11.1752 -0.0771625 11.7979 0.08247 12.3825L2.49622 11.7238L1.52372 9.42ZM68.5 53.4975C68.5 61.7825 61.7837 68.4975 53.5 68.4975V70.9975C63.165 70.9975 71 63.1625 71 53.4975H68.5ZM38.5 53.4975C38.5 45.2138 45.2162 38.4975 53.5 38.4975V35.9975C43.835 35.9975 36 43.8325 36 53.4975H38.5ZM53.5 38.4975C53.625 38.4975 53.75 38.4987 53.875 38.5025L53.9362 36.0025C53.7908 35.999 53.6454 35.9973 53.5 35.9975V38.4975ZM53.875 38.5025C61.9862 38.7 68.5 45.3375 68.5 53.4975H71C71 43.9788 63.4 36.235 53.9362 36.0025L53.875 38.5025ZM52.2937 24.9925L52.6562 37.29L55.155 37.215L54.7925 24.9188L52.2937 24.9925ZM53.5 68.4975C49.6337 68.4975 46.1112 67.035 43.45 64.6338L41.775 66.4888C44.9875 69.3959 49.1673 71.0032 53.5 70.9975V68.4975ZM43.45 64.6338C41.8895 63.2289 40.6423 61.5112 39.7895 59.5926C38.9366 57.6739 38.4973 55.5972 38.5 53.4975H36C36 58.6525 38.23 63.2875 41.775 66.4888L43.45 64.6338ZM42.4737 64.3187C39.9387 64.6025 37.3612 64.7475 34.75 64.7475V67.2475C37.455 67.2475 40.125 67.0975 42.7512 66.8038L42.4737 64.3187ZM54.75 58.4975H59.75V55.9975H54.75V58.4975ZM52.25 48.4975H47.25V50.9975H52.25V48.4975ZM57.92 57.9175C57.3396 58.498 56.6505 58.9586 55.8921 59.2728C55.1337 59.5869 54.3209 59.7487 53.5 59.7487C52.6791 59.7487 51.8662 59.5869 51.1078 59.2728C50.3494 58.9586 49.6604 58.498 49.08 57.9175L47.3125 59.685C48.125 60.4976 49.0896 61.1422 50.1513 61.582C51.2129 62.0218 52.3508 62.2481 53.5 62.2481C54.6491 62.2481 55.787 62.0218 56.8487 61.582C57.9103 61.1422 58.8749 60.4976 59.6875 59.685L57.92 57.9175ZM49.08 49.0788C49.6604 48.4982 50.3494 48.0377 51.1078 47.7235C51.8662 47.4093 52.6791 47.2476 53.5 47.2476C54.3209 47.2476 55.1337 47.4093 55.8921 47.7235C56.6505 48.0377 57.3396 48.497 57.92 49.0775L59.6875 47.31C58.8749 46.4974 57.9103 45.8528 56.8487 45.413C55.787 44.9732 54.6491 44.7469 53.5 44.7469C52.3508 44.7469 51.2129 44.9732 50.1513 45.413C49.0896 45.8528 48.125 46.4961 47.3125 47.3088L49.08 49.0788ZM57.92 49.0775C58.8387 49.9932 59.448 51.1745 59.6625 52.4538L62.1287 52.0413C61.8283 50.2482 60.9747 48.5939 59.6875 47.31L57.92 49.0775ZM49.08 57.9175C48.1612 57.0019 47.5519 55.8205 47.3375 54.5413L44.8712 54.9538C45.1716 56.7468 46.0252 58.4011 47.3125 59.685L49.08 57.9175ZM58.7087 56.9538C58.4837 57.2938 58.2212 57.6175 57.92 57.9175L59.6875 59.685C60.0992 59.2736 60.4689 58.8222 60.7912 58.3375L58.7087 56.9538ZM58.5 57.2475V57.6463H61V57.2475H58.5ZM58.5 57.6463V62.2475H61V57.6463H58.5ZM48.2912 50.0413C48.5162 49.7025 48.7775 49.3788 49.08 49.0788L47.3125 47.3088C46.8937 47.7275 46.5262 48.18 46.2087 48.6575L48.2912 50.0413ZM48.5 49.7475V49.3488H46V49.75H48.5V49.7475ZM48.5 49.3488V44.75H46V49.3488H48.5Z" fill="#111827"/>
</svg>
